<svg width="13" height="7" viewBox="0 0 13 7" fill="none" xmlns="http://www.w3.org/2000/svg">
<path d="M6.50018 6.95001C6.36685 6.95001 6.24185 6.92934 6.12518 6.88801C6.00852 6.84667 5.90018 6.77567 5.80018 6.67501L1.17518 2.05001C0.991851 1.86667 0.904518 1.63734 0.913184 1.36201C0.921851 1.08667 1.01752 0.857674 1.20018 0.675007C1.38352 0.491674 1.61685 0.400006 1.90018 0.400006C2.18352 0.400006 2.41685 0.491674 2.60018 0.675007L6.50018 4.57501L10.4252 0.650006C10.6085 0.466673 10.8379 0.379007 11.1132 0.387007C11.3885 0.395007 11.6175 0.491007 11.8002 0.675007C11.9835 0.85834 12.0752 1.09167 12.0752 1.37501C12.0752 1.65834 11.9835 1.89167 11.8002 2.07501L7.20018 6.67501C7.10018 6.77501 6.99185 6.84601 6.87518 6.88801C6.75852 6.93001 6.63352 6.95067 6.50018 6.95001Z" fill="white"/>
</svg>
