<svg width="40" height="40" viewBox="0 0 40 40" fill="none" xmlns="http://www.w3.org/2000/svg">
<circle cx="20" cy="20" r="20" fill="white" fill-opacity="0.3"/>
<path d="M26.3115 18.6227C26.6452 19.1782 26.8934 19.7569 27.0562 20.3588C27.2189 20.9606 27.3044 21.5818 27.3125 22.2222V23.4144L19.5 27.1296L11.6875 23.4144C11.6875 22.9514 11.6916 22.5193 11.6997 22.1181C11.7078 21.7168 11.7445 21.3272 11.8096 20.9491C11.8747 20.571 11.9723 20.1929 12.1025 19.8148C12.2327 19.4367 12.4281 19.0394 12.6885 18.6227L10.125 17.4074V24.2014C10.361 24.2785 10.5726 24.3866 10.7598 24.5255C10.9469 24.6644 11.1138 24.8264 11.2603 25.0116C11.4067 25.1968 11.5125 25.3974 11.5776 25.6134C11.6427 25.8295 11.6794 26.0571 11.6875 26.2963V30H7V26.2963C7 26.0648 7.03662 25.841 7.10986 25.625C7.18311 25.409 7.2889 25.2045 7.42725 25.0116C7.56559 24.8187 7.72835 24.6566 7.91553 24.5255C8.1027 24.3943 8.31836 24.2863 8.5625 24.2014V16.6667L7 15.9259L19.5 10L32 15.9259L26.3115 18.6227ZM10.125 26.2963C10.125 26.0957 10.0477 25.9221 9.89307 25.7755C9.73844 25.6289 9.55534 25.5556 9.34375 25.5556C9.13216 25.5556 8.94906 25.6289 8.79443 25.7755C8.63981 25.9221 8.5625 26.0957 8.5625 26.2963V28.5185H10.125V26.2963ZM10.4912 15.9259L19.5 20.1968L28.5088 15.9259L19.5 11.6551L10.4912 15.9259ZM25.75 22.5C25.75 21.9059 25.689 21.3542 25.5669 20.8449C25.4448 20.3356 25.2292 19.8148 24.9199 19.2824L19.5 21.8519L14.0801 19.2824C13.8115 19.7299 13.6081 20.2006 13.4697 20.6944C13.3314 21.1883 13.2581 21.6975 13.25 22.2222V22.5L19.5 25.463L25.75 22.5Z" fill="white"/>
</svg>
