<svg width="25" height="20" viewBox="0 0 25 20" fill="none" xmlns="http://www.w3.org/2000/svg">
<path d="M19.3115 8.62268C19.6452 9.17824 19.8934 9.75694 20.0562 10.3588C20.2189 10.9606 20.3044 11.5818 20.3125 12.2222V13.4144L12.5 17.1296L4.6875 13.4144C4.6875 12.9514 4.69157 12.5193 4.69971 12.1181C4.70785 11.7168 4.74447 11.3272 4.80957 10.9491C4.87467 10.571 4.97233 10.1929 5.10254 9.81481C5.23275 9.43673 5.42806 9.03935 5.68848 8.62268L3.125 7.40741V14.2014C3.361 14.2785 3.57259 14.3866 3.75977 14.5255C3.94694 14.6644 4.11377 14.8264 4.26025 15.0116C4.40674 15.1968 4.51253 15.3974 4.57764 15.6134C4.64274 15.8295 4.67936 16.0571 4.6875 16.2963V20H0V16.2963C0 16.0648 0.0366211 15.841 0.109863 15.625C0.183105 15.4089 0.2889 15.2045 0.427246 15.0116C0.565592 14.8187 0.728353 14.6566 0.915527 14.5255C1.1027 14.3943 1.31836 14.2863 1.5625 14.2014V6.66667L0 5.92593L12.5 0L25 5.92593L19.3115 8.62268ZM3.125 16.2963C3.125 16.0957 3.04769 15.9221 2.89307 15.7755C2.73844 15.6289 2.55534 15.5556 2.34375 15.5556C2.13216 15.5556 1.94906 15.6289 1.79443 15.7755C1.63981 15.9221 1.5625 16.0957 1.5625 16.2963V18.5185H3.125V16.2963ZM3.49121 5.92593L12.5 10.1968L21.5088 5.92593L12.5 1.65509L3.49121 5.92593ZM18.75 12.5C18.75 11.9059 18.689 11.3542 18.5669 10.8449C18.4448 10.3356 18.2292 9.81481 17.9199 9.28241L12.5 11.8519L7.08008 9.28241C6.81152 9.72994 6.60807 10.2006 6.46973 10.6944C6.33138 11.1883 6.25814 11.6975 6.25 12.2222V12.5L12.5 15.463L18.75 12.5Z" fill="white"/>
</svg>
