<svg width="40" height="40" viewBox="0 0 40 40" fill="none" xmlns="http://www.w3.org/2000/svg">
<circle cx="20" cy="20" r="20" fill="white" fill-opacity="0.3"/>
<path d="M28 11C28.5304 11 29.0391 11.2107 29.4142 11.5858C29.7893 11.9609 30 12.4696 30 13V27C30 27.5304 29.7893 28.0391 29.4142 28.4142C29.0391 28.7893 28.5304 29 28 29H14C13.4696 29 12.9609 28.7893 12.5858 28.4142C12.2107 28.0391 12 27.5304 12 27V13C12 12.4696 12.2107 11.9609 12.5858 11.5858C12.9609 11.2107 13.4696 11 14 11H28ZM27.5 26.5V21.2C27.5 20.3354 27.1565 19.5062 26.5452 18.8948C25.9338 18.2835 25.1046 17.94 24.24 17.94C23.39 17.94 22.4 18.46 21.92 19.24V18.13H19.13V26.5H21.92V21.57C21.92 20.8 22.54 20.17 23.31 20.17C23.6813 20.17 24.0374 20.3175 24.2999 20.5801C24.5625 20.8426 24.71 21.1987 24.71 21.57V26.5H27.5ZM15.88 16.56C16.3256 16.56 16.7529 16.383 17.0679 16.0679C17.383 15.7529 17.56 15.3256 17.56 14.88C17.56 13.95 16.81 13.19 15.88 13.19C15.4318 13.19 15.0019 13.3681 14.685 13.685C14.3681 14.0019 14.19 14.4318 14.19 14.88C14.19 15.81 14.95 16.56 15.88 16.56ZM17.27 26.5V18.13H14.5V26.5H17.27Z" fill="white"/>
</svg>
