<svg width="40" height="50" viewBox="0 0 40 50" fill="none" xmlns="http://www.w3.org/2000/svg">
<path d="M33.8271 4.05844H31.1033C30.1213 4.05844 29.3254 4.76982 29.3254 5.64735V14.4957C29.3254 15.3732 30.1213 16.0846 31.1033 16.0846H33.8271C34.8091 16.0846 35.605 15.3732 35.605 14.4957V5.64735C35.605 4.76982 34.8091 4.05844 33.8271 4.05844Z" fill="#41529F"/>
<path d="M23.6421 49.1976V40.815H35.1881L25.1736 49.7652C25.0481 49.8775 24.8882 49.9538 24.7141 49.9847C24.54 50.0156 24.3595 49.9998 24.1955 49.939C24.0315 49.8782 23.8914 49.7752 23.7929 49.6432C23.6944 49.5114 23.6419 49.3562 23.6421 49.1976Z" fill="#41529F"/>
<path d="M35.8067 40.2942H23.6421V41.2989H34.624L35.8067 40.2942Z" fill="#41529F"/>
<path d="M38.3075 15.4751L21.6916 0.623951C21.2422 0.224336 20.6341 0 20.0001 0C19.3662 0 18.758 0.224336 18.3087 0.623951L1.693 15.4751C0.679065 16.4829 0.081624 17.7705 0 19.1238V21.7397C9.07774 27.7757 20.0951 31.028 31.4096 31.0117C34.2871 31.0122 37.1599 30.8032 39.9995 30.3867V19.1238C39.9169 17.7709 39.3201 16.4836 38.3075 15.4751Z" fill="#41529F"/>
<path d="M31.4102 33.4171C20.0957 33.4331 9.07834 30.1808 0.000549316 24.1451V38.2759C0.00260262 38.8424 0.255286 39.385 0.703441 39.7855C1.15159 40.1861 1.75883 40.4118 2.39261 40.4137H37.6082C38.2419 40.4118 38.849 40.1859 39.2973 39.7855C39.7454 39.3848 39.998 38.8422 40 38.2759V32.7921C37.1605 33.2085 34.2876 33.4176 31.4102 33.4171Z" fill="#41529F"/>
</svg>
