<svg width="65" height="65" viewBox="0 0 65 65" fill="none" xmlns="http://www.w3.org/2000/svg">
<circle cx="32.5" cy="32.5" r="32.5" fill="white" fill-opacity="0.3"/>
<path d="M48.0556 32.5C47.537 32.5 47.0756 32.3133 46.6711 31.94C46.2654 31.568 46.0301 31.1065 45.9653 30.5556C45.544 27.5417 44.2723 24.9731 42.1503 22.8497C40.0269 20.7277 37.4583 19.456 34.4444 19.0347C33.8935 18.9699 33.432 18.7431 33.06 18.3542C32.6867 17.9653 32.5 17.4954 32.5 16.9444C32.5 16.3935 32.6944 15.9314 33.0833 15.5581C33.4722 15.186 33.9259 15.0324 34.4444 15.0972C38.5278 15.5509 42.0116 17.2199 44.8958 20.1042C47.7801 22.9884 49.4491 26.4722 49.9028 30.5556C49.9676 31.0741 49.8133 31.5278 49.44 31.9167C49.068 32.3056 48.6065 32.5 48.0556 32.5ZM39.9375 32.5C39.5162 32.5 39.1435 32.3542 38.8194 32.0625C38.4954 31.7708 38.2523 31.3819 38.0903 30.8958C37.831 29.956 37.3371 29.1212 36.6086 28.3914C35.8788 27.6629 35.044 27.169 34.1042 26.9097C33.6181 26.7477 33.2292 26.5046 32.9375 26.1806C32.6458 25.8565 32.5 25.4676 32.5 25.0139C32.5 24.3657 32.7269 23.8388 33.1806 23.4331C33.6343 23.0286 34.1366 22.8912 34.6875 23.0208C36.5023 23.4421 38.0663 24.3087 39.3794 25.6206C40.6913 26.9337 41.5579 28.4977 41.9792 30.3125C42.1088 30.8634 41.963 31.3657 41.5417 31.8194C41.1204 32.2731 40.5856 32.5 39.9375 32.5ZM47.9583 50C43.7778 50 39.7029 49.068 35.7336 47.2039C31.7631 45.3411 28.2469 42.8781 25.185 39.815C22.1219 36.7531 19.6589 33.2369 17.7961 29.2664C15.932 25.2971 15 21.2222 15 17.0417C15 16.4583 15.1944 15.9722 15.5833 15.5833C15.9722 15.1944 16.4583 15 17.0417 15H24.9167C25.3704 15 25.7755 15.1458 26.1319 15.4375C26.4884 15.7292 26.6991 16.1019 26.7639 16.5556L28.0278 23.3611C28.0926 23.8148 28.0848 24.2277 28.0044 24.5997C27.9228 24.9731 27.7361 25.3056 27.4444 25.5972L22.7778 30.3611C24.1389 32.6944 25.8403 34.8819 27.8819 36.9236C29.9236 38.9653 32.1759 40.7315 34.6389 42.2222L39.2083 37.6528C39.5 37.3611 39.8811 37.142 40.3517 36.9956C40.8209 36.8504 41.2824 36.8102 41.7361 36.875L48.4444 38.2361C48.8981 38.3333 49.2708 38.5518 49.5625 38.8914C49.8542 39.2323 50 39.6296 50 40.0833V47.9583C50 48.5417 49.8056 49.0278 49.4167 49.4167C49.0278 49.8056 48.5417 50 47.9583 50Z" fill="#203647"/>
</svg>
