<svg width="203" height="135" viewBox="0 0 203 135" fill="none" xmlns="http://www.w3.org/2000/svg">
<path d="M59.2032 67.1252C59.5569 68.1155 59.8044 69.2472 59.9459 70.5204C60.1581 71.7228 60.2642 72.9607 60.2642 74.2338C60.2642 75.507 60.1581 76.7802 59.9459 78.0534C59.8044 79.2559 59.5922 80.3168 59.3093 81.2364C58.1776 85.1974 55.9141 88.5218 52.519 91.2097C49.1238 93.8268 45.2335 95.7366 40.8481 96.939C36.5334 98.1415 32.0419 98.5659 27.3735 98.2122C22.7759 97.8585 18.6734 96.6914 15.066 94.7109C12.8026 93.4377 10.8575 91.8816 9.23061 90.0426C7.60376 88.2035 6.22447 86.1523 5.09275 83.8888C4.66835 83.1108 4.38542 82.2266 4.24396 81.2364C4.17322 80.1754 4.27932 79.1851 4.56225 78.2656C4.84518 77.2753 5.30495 76.4266 5.94154 75.7192C6.57813 74.9412 7.46229 74.4107 8.59401 74.1277C9.30134 73.9863 10.0794 73.9155 10.9282 73.9155C11.8477 73.9155 12.7319 74.057 13.5807 74.3399C14.4295 74.5521 15.2075 74.9412 15.9148 75.507C16.6222 76.0022 17.188 76.7095 17.6124 77.629C18.3905 79.1144 19.4868 80.4937 20.9015 81.7669C22.3869 82.9693 23.943 83.9596 25.5698 84.7376C27.904 85.5157 30.2382 85.834 32.5724 85.6925C34.9773 85.5511 37.1346 85.0206 39.0444 84.101C41.0249 83.1815 42.6164 81.9437 43.8189 80.3876C45.0213 78.7607 45.6225 76.9217 45.6225 74.8704C45.6225 73.1728 45.375 71.7936 44.8798 70.7326C44.3847 69.6009 43.6774 68.6813 42.7579 67.974C41.9091 67.1959 40.8481 66.5593 39.5749 66.0642C38.3724 65.5691 37.0285 65.1447 35.5431 64.791C33.8456 64.4374 32.1126 64.1898 30.3443 64.0483C28.6467 63.9069 26.9138 63.73 25.1454 63.5178C23.3771 63.3056 21.6442 63.0227 19.9466 62.6691C18.249 62.3154 16.5868 61.7849 14.9599 61.0776C11.7062 59.7337 9.23061 57.6824 7.53302 54.9238C5.83544 52.1653 4.80982 49.1945 4.45616 46.0115C4.17322 42.8286 4.56225 39.681 5.62324 36.5687C6.68423 33.3857 8.38182 30.6625 10.716 28.3991C12.9794 26.3479 15.6673 24.8978 18.7795 24.049C21.9625 23.1295 25.4637 22.599 29.2833 22.4576C31.4053 22.3868 33.5273 22.4576 35.6492 22.6698C37.842 22.882 39.9286 23.2356 41.9091 23.7307C43.9603 24.2259 45.8347 24.8625 47.5323 25.6405C49.3006 26.4186 50.8214 27.3381 52.0946 28.3991C53.0141 29.1064 53.9336 30.0613 54.8531 31.2638C55.7727 32.3955 56.48 33.6333 56.9751 34.9772C57.4703 36.2504 57.6117 37.4882 57.3995 38.6907C57.2581 39.8931 56.5154 40.9188 55.1714 41.7676C54.0397 42.4749 52.9434 42.7932 51.8824 42.7225C50.8921 42.581 49.9372 42.2627 49.0177 41.7676C48.0982 41.2017 47.214 40.5651 46.3652 39.8578C45.5164 39.1505 44.7384 38.5139 44.0311 37.948C42.1213 36.5333 39.7517 35.5785 36.9224 35.0833C34.0931 34.5882 31.4407 34.4821 28.965 34.765C27.4089 34.9772 25.9589 35.3309 24.615 35.826C23.271 36.3212 22.1039 36.9931 21.1137 37.8419C20.1942 38.6907 19.4515 39.7517 18.8856 41.0249C18.3905 42.2273 18.2137 43.6066 18.3551 45.1627C18.4258 46.2945 18.7441 47.2493 19.31 48.0274C19.9466 48.8055 20.6893 49.4421 21.5381 49.9372C22.4576 50.4323 23.4479 50.8213 24.5089 51.1043C25.5698 51.3872 26.6308 51.5994 27.6918 51.7409C30.8748 52.1653 34.0578 52.4836 37.2407 52.6958C40.4237 52.908 43.5359 53.6153 46.5774 54.8177C49.6897 56.0202 52.3421 57.647 54.5349 59.6983C56.7276 61.7495 58.2837 64.2252 59.2032 67.1252ZM110.173 77.0985C110.244 78.5132 110.279 79.9985 110.279 81.5547C110.279 83.0401 110.244 84.4193 110.173 85.6925C110.102 87.6023 109.996 89.3706 109.855 90.9975C109.713 92.5536 109.43 93.8975 109.006 95.0292C108.581 96.0902 107.91 96.9036 106.99 97.4695C106.141 97.9646 104.939 98.1061 103.383 97.8939C101.756 97.6817 100.589 96.9036 99.8814 95.5597C99.174 94.2158 98.6789 92.6951 98.396 90.9975C98.1838 89.2292 98.1131 87.4608 98.1838 85.6925C98.2545 83.9242 98.2545 82.5449 98.1838 81.5547C98.1131 79.9985 98.0423 78.2302 97.9716 76.2497C97.9716 74.1985 97.7594 72.2887 97.335 70.5204C96.9813 68.6813 96.3447 67.1252 95.4252 65.852C94.5057 64.5788 93.1264 63.9069 91.2874 63.8361C88.9532 63.6947 87.1495 63.8715 85.8763 64.3666C84.6739 64.8618 83.7897 65.6045 83.2238 66.5947C82.658 67.5142 82.3043 68.646 82.1628 69.9899C82.0921 71.3338 81.9506 72.7838 81.7384 74.3399L81.6324 78.4778V86.223C81.6324 87.4962 81.597 88.8401 81.5263 90.2548C81.5263 91.5987 81.3141 92.8365 80.8897 93.9682C80.4653 95.1 79.7933 96.0549 78.8738 96.8329C78.025 97.611 76.7518 98 75.0542 98C72.9322 98 71.3408 97.328 70.2798 95.9841C69.2895 94.5695 68.7944 92.8365 68.7944 90.7853V29.7784C68.7944 29.354 68.7944 28.965 68.7944 28.6113C68.8651 28.1869 68.9358 27.7625 69.0066 27.3381C69.148 26.9137 69.2541 26.5247 69.3249 26.171C69.3956 25.7466 69.5017 25.3576 69.6432 25.0039C69.8554 24.2966 70.209 23.7661 70.7042 23.4125C71.0578 23.0588 71.4115 22.7759 71.7652 22.5637C72.1188 22.3515 72.5078 22.21 72.9322 22.1393C73.2859 22.0685 73.6749 22.0332 74.0993 22.0332C74.5237 21.9624 74.9481 21.9271 75.3725 21.9271C76.4335 21.9271 77.4591 22.2454 78.4494 22.882C78.8738 23.1649 79.2628 23.4832 79.6165 23.8368C79.9701 24.1198 80.2531 24.5442 80.4653 25.11C81.0311 26.454 81.3141 27.7271 81.3141 28.9296C81.3848 29.2833 81.4202 29.8138 81.4202 30.5211C81.4909 31.1577 81.5263 31.8296 81.5263 32.537C81.5263 33.2443 81.5263 33.9516 81.5263 34.6589C81.597 35.2955 81.6324 35.7907 81.6324 36.1443V36.6748C81.7031 38.9383 81.7384 41.2371 81.7384 43.5712C81.7384 45.9054 81.7384 48.275 81.7384 50.6799V52.4836C84.7092 51.4933 87.8215 51.0335 91.0752 51.1043C94.3289 51.1043 97.2289 51.7409 99.7753 53.0141C102.392 54.358 104.373 55.8787 105.717 57.5763C107.131 59.2739 108.157 61.1483 108.794 63.1995C109.43 65.2508 109.784 67.4435 109.855 69.7777C109.996 72.1119 110.102 74.5521 110.173 77.0985ZM155.446 83.4644C156.294 83.2522 157.143 83.1108 157.992 83.0401C158.912 82.9693 159.725 83.0754 160.432 83.3583C161.21 83.6413 161.847 84.1364 162.342 84.8437C162.837 85.4803 163.085 86.3998 163.085 87.6023C163.085 88.4511 162.873 89.2645 162.448 90.0426C162.024 90.8206 161.493 91.528 160.857 92.1646C160.22 92.8012 159.513 93.367 158.735 93.8621C157.957 94.2865 157.214 94.6402 156.507 94.9231C154.455 95.8427 152.086 96.55 149.398 97.0451C146.781 97.5402 144.058 97.7171 141.228 97.5756C137.409 97.4341 133.731 96.6914 130.194 95.3475C126.728 93.9329 124.005 91.6341 122.025 88.4511C120.185 85.3389 119.089 81.873 118.735 78.0534C118.382 74.2338 118.559 70.6265 119.266 67.2313C120.044 63.1288 121.353 59.8044 123.192 57.258C125.101 54.6409 127.365 52.5543 129.982 50.9982C133.165 49.1591 136.737 48.2042 140.698 48.1335C144.659 48.0628 148.443 48.8408 152.051 50.4677C154.455 51.5287 156.613 52.9787 158.523 54.8177C160.432 56.586 161.882 58.7434 162.873 61.2898C163.156 61.9264 163.368 62.7044 163.509 63.6239C163.721 64.5435 163.863 65.5337 163.934 66.5947C164.004 67.585 164.004 68.5752 163.934 69.5655C163.863 70.5557 163.686 71.4399 163.403 72.218C162.979 73.4911 162.448 74.4814 161.812 75.1887C161.175 75.8961 160.362 76.4265 159.371 76.7802C158.381 77.1339 157.179 77.3814 155.764 77.5229C154.42 77.5936 152.793 77.6644 150.883 77.7351C149.186 77.8058 147.594 77.8412 146.109 77.8412C144.624 77.8412 143.103 77.8412 141.547 77.8412C139.991 77.7705 138.364 77.7351 136.666 77.7351C135.039 77.6644 133.2 77.5936 131.149 77.5229C130.937 78.9376 131.114 80.1754 131.68 81.2364C132.316 82.2266 133.165 83.0754 134.226 83.7827C135.287 84.4193 136.489 84.9145 137.833 85.2681C139.177 85.6218 140.486 85.834 141.759 85.9047C144.164 86.0462 146.463 85.8694 148.655 85.3742C150.848 84.8084 153.112 84.1718 155.446 83.4644ZM150.883 62.8813C149.54 61.3251 148.125 60.1934 146.639 59.4861C145.508 58.991 144.305 58.7788 143.032 58.8495C141.83 58.8495 140.663 59.0263 139.531 59.38C137.48 59.8751 135.747 60.9361 134.332 62.563C134.191 62.7044 133.943 63.0581 133.589 63.6239C133.236 64.1191 132.882 64.6496 132.528 65.2154C132.245 65.7813 132.033 66.3118 131.892 66.8069C131.75 67.302 131.821 67.5496 132.104 67.5496H152.899C152.829 66.5593 152.652 65.7459 152.369 65.1093C152.086 64.402 151.591 63.6593 150.883 62.8813Z" fill="#D7263D"/>
<path d="M133.425 14.5931C133.733 14.957 133.887 15.335 133.887 15.7269C133.887 15.8948 133.873 16.0768 133.845 16.2728C133.845 16.4407 133.831 16.5947 133.803 16.7347C133.719 17.0426 133.537 17.3365 133.257 17.6165C133.033 17.7844 132.725 17.9104 132.333 17.9944C132.137 18.0504 131.941 18.0924 131.745 18.1204C131.549 18.1484 131.34 18.1903 131.116 18.2463C130.92 18.2743 130.724 18.2883 130.528 18.2883C130.332 18.2883 130.122 18.2883 129.898 18.2883H127.756C127.252 18.3163 126.749 18.3303 126.245 18.3303C125.769 18.3303 125.293 18.3303 124.817 18.3303C124.845 19.1981 124.859 20.1359 124.859 21.1437C124.859 22.1235 124.845 23.2713 124.817 24.587C124.817 25.9027 124.803 27.4284 124.775 29.164C124.775 30.8996 124.775 32.9152 124.775 35.2107V38.402C124.775 38.6819 124.789 38.8919 124.817 39.0319C124.817 39.1438 124.817 39.2558 124.817 39.3678C124.817 39.4518 124.803 39.5637 124.775 39.7037C124.719 39.9557 124.677 40.2496 124.649 40.5855C124.649 40.7255 124.635 40.8655 124.607 41.0054C124.579 41.1174 124.537 41.2434 124.481 41.3834C124.369 41.4953 124.313 41.5793 124.313 41.6353L124.187 41.8872C124.047 42.1672 123.781 42.4331 123.389 42.6851C122.773 42.993 122.088 43.063 121.332 42.895C120.856 42.839 120.492 42.7131 120.24 42.5171C119.988 42.2652 119.806 42.0132 119.694 41.7613C119.526 41.4533 119.428 41.1594 119.4 40.8795C119.316 40.6275 119.274 40.3616 119.274 40.0816V18.4983C119.106 18.4983 118.756 18.4983 118.224 18.4983C117.692 18.4983 117.119 18.4983 116.503 18.4983C115.915 18.4703 115.355 18.4423 114.823 18.4143C114.291 18.3863 113.927 18.3583 113.731 18.3303C113.563 18.3023 113.297 18.2603 112.933 18.2043C112.598 18.1484 112.318 18.0924 112.094 18.0364C111.506 17.8684 111.044 17.6025 110.708 17.2386C110.4 16.8746 110.246 16.4687 110.246 16.0208C110.246 15.8529 110.246 15.6849 110.246 15.5169C110.246 15.349 110.274 15.195 110.33 15.055C110.414 14.7191 110.638 14.4392 111.002 14.2152C111.114 14.1312 111.282 14.0332 111.506 13.9213C111.758 13.7813 111.996 13.6833 112.22 13.6273C112.556 13.5154 112.975 13.4314 113.479 13.3754C113.703 13.3474 113.927 13.3334 114.151 13.3334C114.375 13.3334 114.613 13.3334 114.865 13.3334C115.845 13.3334 116.769 13.3334 117.636 13.3334C118.532 13.3334 119.47 13.3194 120.45 13.2914C122.074 13.2634 123.683 13.2634 125.279 13.2914C126.902 13.2914 128.512 13.3194 130.108 13.3754C130.472 13.4034 130.822 13.4454 131.158 13.5014C131.493 13.5573 131.829 13.6553 132.165 13.7953C132.417 13.8793 132.655 13.9913 132.879 14.1312C133.103 14.2432 133.285 14.3972 133.425 14.5931ZM137.18 25.3428C138.019 24.9229 138.901 24.629 139.825 24.461C140.749 24.265 141.659 24.223 142.555 24.335C143.478 24.419 144.36 24.657 145.2 25.0489C146.04 25.4128 146.824 25.9447 147.551 26.6445C148.279 27.3724 148.839 28.1702 149.231 29.038C149.623 29.9058 149.903 30.8716 150.071 31.9354C150.183 32.6632 150.365 33.3351 150.617 33.951C150.869 34.5668 151.135 35.1827 151.415 35.7986C151.723 36.4144 152.002 37.0303 152.254 37.6462C152.534 38.262 152.758 38.9059 152.926 39.5777C153.066 40.2216 153.01 40.8515 152.758 41.4673C152.534 42.0552 152.058 42.4191 151.331 42.5591C150.911 42.6431 150.505 42.6151 150.113 42.4751C149.749 42.3072 149.413 42.0832 149.105 41.8033C148.797 41.4953 148.517 41.1734 148.265 40.8375C148.041 40.4735 147.831 40.1376 147.635 39.8297C146.992 40.6695 146.292 41.3274 145.536 41.8033C144.78 42.2512 143.87 42.5451 142.806 42.6851C141.911 42.797 141.057 42.825 140.245 42.7691C139.433 42.7131 138.565 42.5591 137.642 42.3072C136.438 41.9992 135.444 41.4673 134.66 40.7115C133.904 39.9277 133.316 39.0319 132.897 38.0241C132.505 36.9883 132.295 35.8825 132.267 34.7068C132.239 33.531 132.379 32.3693 132.687 31.2215C133.079 29.7099 133.666 28.4781 134.45 27.5263C135.234 26.5745 136.144 25.8467 137.18 25.3428ZM138.229 30.2557C137.838 30.6477 137.53 31.1096 137.306 31.6415C137.082 32.1733 136.942 32.7332 136.886 33.3211C136.858 33.909 136.914 34.4968 137.054 35.0847C137.194 35.6726 137.418 36.1905 137.726 36.6384C138.005 37.0303 138.481 37.3662 139.153 37.6462C139.825 37.8981 140.525 38.0521 141.253 38.1081C142.093 38.164 142.82 37.9401 143.436 37.4362C144.08 36.9323 144.556 36.3024 144.864 35.5466C145.2 34.7628 145.354 33.937 145.326 33.0691C145.298 32.1733 145.06 31.3615 144.612 30.6337C144.276 30.1018 143.828 29.7099 143.268 29.4579C142.736 29.206 142.163 29.08 141.547 29.08C140.931 29.052 140.315 29.15 139.699 29.3739C139.111 29.5699 138.621 29.8638 138.229 30.2557ZM162.005 39.6617C161.977 39.8017 161.949 39.9417 161.921 40.0816C161.921 40.1936 161.921 40.3196 161.921 40.4596L161.669 41.3414C161.613 41.4533 161.571 41.5233 161.543 41.5513L161.417 41.8033C161.277 42.1112 161.025 42.3631 160.661 42.5591C159.989 42.895 159.275 42.979 158.519 42.811C158.043 42.7551 157.665 42.6151 157.386 42.3911C157.106 42.1952 156.91 41.9572 156.798 41.6773C156.686 41.3973 156.602 41.1174 156.546 40.8375C156.462 40.5575 156.42 40.3056 156.42 40.0816V16.5667C156.42 16.3707 156.42 16.2028 156.42 16.0628C156.448 15.8948 156.476 15.7409 156.504 15.6009C156.532 15.4049 156.56 15.237 156.588 15.097C156.644 14.957 156.7 14.8031 156.756 14.6351C156.84 14.3552 156.994 14.1312 157.218 13.9633C157.553 13.7113 157.875 13.5713 158.183 13.5434C158.379 13.4874 158.561 13.4594 158.729 13.4594C158.897 13.4314 159.093 13.4174 159.317 13.4174C159.709 13.4174 160.157 13.5294 160.661 13.7533C161.053 13.9773 161.333 14.2852 161.501 14.6771C161.781 15.237 161.921 15.7549 161.921 16.2308C161.949 16.5107 161.963 16.9306 161.963 17.4905C161.991 18.0504 162.005 18.4703 162.005 18.7502V18.9182C162.061 19.814 162.088 20.6818 162.088 21.5216C162.088 22.3335 162.075 23.2293 162.047 24.2091C162.047 25.1608 162.033 26.0846 162.005 26.9805C162.005 27.8483 162.005 28.7161 162.005 29.5839V38.402C162.005 38.514 162.005 38.6259 162.005 38.7379C162.033 38.8219 162.047 38.9199 162.047 39.0319C162.047 39.3118 162.033 39.5218 162.005 39.6617ZM174.741 33.3631C175.356 34.0069 175.804 34.4828 176.084 34.7908C176.392 35.0707 176.602 35.2807 176.714 35.4206C176.854 35.5606 176.952 35.6446 177.008 35.6726C177.064 35.7006 177.162 35.7846 177.302 35.9245C177.442 36.0645 177.666 36.2885 177.974 36.5964C178.282 36.8763 178.744 37.3382 179.36 37.9821C179.863 38.486 180.269 39.0739 180.577 39.7457C180.913 40.3896 180.885 41.0894 180.493 41.8453C180.269 42.2372 180.017 42.5171 179.737 42.6851C179.458 42.825 179.15 42.881 178.814 42.853C178.506 42.825 178.17 42.7271 177.806 42.5591C177.47 42.3911 177.134 42.1812 176.798 41.9292C176.154 41.4533 175.538 40.9075 174.951 40.2916C174.363 39.6477 173.887 39.1578 173.523 38.8219C173.271 38.57 173.117 38.402 173.061 38.318C173.005 38.262 172.949 38.22 172.893 38.192C172.837 38.1361 172.781 38.0801 172.725 38.0241C172.529 37.8281 172.319 37.6322 172.095 37.4362C171.871 37.2402 171.647 37.0303 171.423 36.8063V38.444C171.423 38.7519 171.437 38.9759 171.465 39.1158C171.465 39.3958 171.451 39.6057 171.423 39.7457C171.339 40.0536 171.297 40.3476 171.297 40.6275C171.269 40.7675 171.241 40.9075 171.213 41.0474C171.185 41.1594 171.143 41.2854 171.087 41.4253C171.059 41.4813 171.031 41.5233 171.003 41.5513C171.003 41.5793 171.003 41.6213 171.003 41.6773C170.975 41.7333 170.947 41.7753 170.919 41.8033C170.919 41.8313 170.905 41.8732 170.877 41.9292C170.737 42.2092 170.513 42.4751 170.206 42.7271C169.674 43.035 169.016 43.119 168.232 42.979C167.812 42.895 167.49 42.7411 167.266 42.5171C167.014 42.3491 166.846 42.1112 166.762 41.8033C166.706 41.6633 166.65 41.5233 166.594 41.3834C166.566 41.2154 166.524 41.0614 166.468 40.9215C166.412 40.7815 166.384 40.6555 166.384 40.5435C166.384 40.4036 166.384 40.2916 166.384 40.2076V16.3148C166.384 16.1468 166.384 15.9788 166.384 15.8109C166.384 15.6429 166.398 15.4749 166.426 15.307C166.454 15.139 166.482 14.985 166.51 14.8451C166.566 14.6771 166.622 14.5231 166.678 14.3832C166.79 14.1032 166.93 13.8793 167.098 13.7113C167.238 13.5713 167.378 13.4734 167.518 13.4174C167.686 13.3334 167.84 13.2634 167.98 13.2074C168.12 13.1794 168.274 13.1654 168.442 13.1654C168.638 13.1374 168.82 13.1234 168.988 13.1234C169.38 13.1234 169.772 13.2354 170.164 13.4594C170.527 13.7113 170.793 14.0332 170.961 14.4252C171.185 14.957 171.297 15.4749 171.297 15.9788C171.325 16.2588 171.353 16.6927 171.381 17.2805C171.409 17.8404 171.423 18.2603 171.423 18.5403V18.7082C171.451 19.632 171.465 20.5138 171.465 21.3537C171.465 22.1935 171.465 23.1033 171.465 24.0831C171.437 25.0629 171.423 26.0007 171.423 26.8965C171.423 27.7643 171.423 28.6321 171.423 29.4999V29.9618C171.647 29.7379 171.871 29.5279 172.095 29.3319C172.319 29.136 172.529 28.926 172.725 28.7021C172.837 28.6181 172.949 28.5201 173.061 28.4081L173.523 27.9462C173.887 27.5823 174.363 27.0924 174.951 26.4766C175.538 25.8327 176.154 25.2728 176.798 24.7969C177.498 24.293 178.17 23.9851 178.814 23.8731C179.486 23.7611 180.045 24.0971 180.493 24.8809C180.885 25.6367 180.913 26.3506 180.577 27.0224C180.269 27.6663 179.863 28.2682 179.36 28.8281C178.744 29.4719 178.282 29.9478 177.974 30.2557C177.666 30.5357 177.442 30.7456 177.302 30.8856C177.162 30.9976 177.064 31.0676 177.008 31.0956C176.952 31.1236 176.854 31.2075 176.714 31.3475C176.602 31.4595 176.392 31.6694 176.084 31.9774C175.804 32.2573 175.356 32.7192 174.741 33.3631ZM194.217 35.6306C193.685 35.2947 193.083 35.0287 192.412 34.8328C191.768 34.6368 191.096 34.4548 190.396 34.2869C189.724 34.1189 189.066 33.937 188.422 33.741C187.779 33.517 187.191 33.2091 186.659 32.8172C185.511 31.9494 184.839 30.8856 184.643 29.6259C184.475 28.3382 184.755 27.0504 185.483 25.7627C185.875 25.0909 186.393 24.545 187.037 24.1251C187.681 23.6772 188.38 23.3412 189.136 23.1173C189.92 22.8653 190.718 22.7254 191.53 22.6974C192.342 22.6694 193.111 22.7114 193.839 22.8234C194.315 22.9073 194.819 23.0333 195.351 23.2013C195.883 23.3412 196.373 23.5372 196.821 23.7891C197.296 24.0411 197.716 24.363 198.08 24.7549C198.472 25.1189 198.752 25.5808 198.92 26.1406C199.032 26.5046 199.046 26.8545 198.962 27.1904C198.906 27.5263 198.766 27.8063 198.542 28.0302C198.346 28.2542 198.08 28.4221 197.744 28.5341C197.436 28.6461 197.101 28.6741 196.737 28.6181C196.317 28.5341 195.925 28.4081 195.561 28.2402C195.197 28.0722 194.833 27.8903 194.469 27.6943C194.105 27.4983 193.727 27.3304 193.335 27.1904C192.971 27.0504 192.58 26.9805 192.16 26.9805C191.516 26.9525 190.984 27.0644 190.564 27.3164C190.144 27.5683 189.85 27.8763 189.682 28.2402C189.542 28.6041 189.556 28.996 189.724 29.4159C189.92 29.8358 190.312 30.1998 190.9 30.5077C191.432 30.7876 192.02 31.0116 192.663 31.1796C193.307 31.3475 193.937 31.5155 194.553 31.6834C195.197 31.8514 195.813 32.0474 196.401 32.2713C197.017 32.4953 197.562 32.8032 198.038 33.1951C198.962 33.951 199.522 34.8328 199.718 35.8405C199.942 36.8483 199.886 37.8421 199.55 38.8219C199.214 39.8017 198.626 40.6695 197.786 41.4253C196.975 42.1812 196.009 42.6851 194.889 42.937C194.077 43.105 193.195 43.189 192.244 43.189C191.32 43.189 190.396 43.091 189.472 42.895C188.576 42.6991 187.709 42.3911 186.869 41.9712C186.057 41.5513 185.371 41.0194 184.811 40.3756C184.419 39.9277 184.209 39.4238 184.181 38.8639C184.181 38.276 184.293 37.7721 184.517 37.3522C184.769 36.9043 185.119 36.5964 185.567 36.4284C186.015 36.2605 186.519 36.3584 187.079 36.7224C187.527 37.0303 188.058 37.3382 188.674 37.6462C189.29 37.9261 189.906 38.15 190.522 38.318C191.138 38.486 191.726 38.57 192.286 38.57C192.873 38.57 193.377 38.444 193.797 38.192C194.413 37.8001 194.735 37.3522 194.763 36.8483C194.791 36.3164 194.609 35.9105 194.217 35.6306Z" fill="#2FA4FF"/>
</svg>
