<svg width="40" height="40" viewBox="0 0 40 40" fill="none" xmlns="http://www.w3.org/2000/svg">
<path d="M16.825 20L18.3 18.525C18.5 18.325 18.6 18.0917 18.6 17.825C18.6 17.5583 18.5 17.325 18.3 17.125C18.1 16.925 17.8627 16.825 17.588 16.825C17.3127 16.825 17.075 16.925 16.875 17.125L14.7 19.3C14.6 19.4 14.5293 19.5083 14.488 19.625C14.446 19.7417 14.425 19.8667 14.425 20C14.425 20.1333 14.446 20.2583 14.488 20.375C14.5293 20.4917 14.6 20.6 14.7 20.7L16.875 22.875C17.075 23.075 17.3127 23.175 17.588 23.175C17.8627 23.175 18.1 23.075 18.3 22.875C18.5 22.675 18.6 22.4417 18.6 22.175C18.6 21.9083 18.5 21.675 18.3 21.475L16.825 20ZM23.175 20L21.7 21.475C21.5 21.675 21.4 21.9083 21.4 22.175C21.4 22.4417 21.5 22.675 21.7 22.875C21.9 23.075 22.1377 23.175 22.413 23.175C22.6877 23.175 22.925 23.075 23.125 22.875L25.3 20.7C25.4 20.6 25.4707 20.4917 25.512 20.375C25.554 20.2583 25.575 20.1333 25.575 20C25.575 19.8667 25.554 19.7417 25.512 19.625C25.4707 19.5083 25.4 19.4 25.3 19.3L23.125 17.125C23.025 17.025 22.9127 16.95 22.788 16.9C22.6627 16.85 22.5377 16.825 22.413 16.825C22.2877 16.825 22.1627 16.85 22.038 16.9C21.9127 16.95 21.8 17.025 21.7 17.125C21.5 17.325 21.4 17.5583 21.4 17.825C21.4 18.0917 21.5 18.325 21.7 18.525L23.175 20ZM13 29C12.45 29 11.979 28.8043 11.587 28.413C11.1957 28.021 11 27.55 11 27V13C11 12.45 11.1957 11.979 11.587 11.587C11.979 11.1957 12.45 11 13 11H27C27.55 11 28.021 11.1957 28.413 11.587C28.8043 11.979 29 12.45 29 13V27C29 27.55 28.8043 28.021 28.413 28.413C28.021 28.8043 27.55 29 27 29H13Z" fill="white"/>
<circle cx="20" cy="20" r="20" fill="white" fill-opacity="0.3"/>
</svg>
