<svg width="28" height="28" viewBox="0 0 28 28" fill="none" xmlns="http://www.w3.org/2000/svg">
<path d="M26.5766 23.9235C26.9289 24.2757 27.1267 24.7534 27.1267 25.2516C27.1267 25.7497 26.9289 26.2275 26.5766 26.5797C26.2244 26.932 25.7466 27.1298 25.2485 27.1298C24.7503 27.1298 24.2726 26.932 23.9204 26.5797L14.0001 16.6563L4.07662 26.5766C3.72438 26.9288 3.24664 27.1267 2.74849 27.1267C2.25035 27.1267 1.77261 26.9288 1.42037 26.5766C1.06813 26.2244 0.870239 25.7466 0.870239 25.2485C0.870239 24.7503 1.06813 24.2726 1.42037 23.9203L11.3438 14L1.42349 4.07659C1.07125 3.72435 0.873364 3.24661 0.873364 2.74847C0.873364 2.25032 1.07125 1.77258 1.42349 1.42034C1.77573 1.0681 2.25347 0.870215 2.75162 0.870215C3.24976 0.870215 3.7275 1.0681 4.07974 1.42034L14.0001 11.3438L23.9235 1.41878C24.2757 1.06654 24.7535 0.868652 25.2516 0.868652C25.7498 0.868652 26.2275 1.06654 26.5797 1.41878C26.932 1.77102 27.1299 2.24876 27.1299 2.7469C27.1299 3.24505 26.932 3.72279 26.5797 4.07503L16.6563 14L26.5766 23.9235Z" fill="#203647"/>
</svg>
