<svg width="40" height="40" viewBox="0 0 40 40" fill="none" xmlns="http://www.w3.org/2000/svg">
<circle cx="20" cy="20" r="20" fill="white" fill-opacity="0.3"/>
<path d="M20 10C14.475 10 10 14.5882 10 20.2529C10 24.7899 12.8625 28.6219 16.8375 29.9804C17.3375 30.0701 17.525 29.7625 17.525 29.4934C17.525 29.2499 17.5125 28.4425 17.5125 27.5838C15 28.058 14.35 26.9558 14.15 26.3791C14.0375 26.0843 13.55 25.1743 13.125 24.9308C12.775 24.7386 12.275 24.2644 13.1125 24.2516C13.9 24.2388 14.4625 24.9949 14.65 25.3025C15.55 26.8533 16.9875 26.4175 17.5625 26.1484C17.65 25.4819 17.9125 25.0334 18.2 24.777C15.975 24.5207 13.65 23.6364 13.65 19.7147C13.65 18.5997 14.0375 17.6769 14.675 16.9592C14.575 16.7029 14.225 15.6519 14.775 14.2422C14.775 14.2422 15.6125 13.973 17.525 15.2931C18.325 15.0624 19.175 14.947 20.025 14.947C20.875 14.947 21.725 15.0624 22.525 15.2931C24.4375 13.9602 25.275 14.2422 25.275 14.2422C25.825 15.6519 25.475 16.7029 25.375 16.9592C26.0125 17.6769 26.4 18.5868 26.4 19.7147C26.4 23.6492 24.0625 24.5207 21.8375 24.777C22.2 25.0975 22.5125 25.7126 22.5125 26.6738C22.5125 28.0452 22.5 29.1474 22.5 29.4934C22.5 29.7625 22.6875 30.0829 23.1875 29.9804C25.1728 29.2935 26.8979 27.9854 28.12 26.2403C29.3421 24.4953 29.9997 22.4012 30 20.2529C30 14.5882 25.525 10 20 10Z" fill="white"/>
</svg>
